<?xml version="1.0" standalone="no"?>
<!DOCTYPE svg PUBLIC "-//W3C//DTD SVG 20010904//EN"
 "http://www.w3.org/TR/2001/REC-SVG-20010904/DTD/svg10.dtd">
<svg version="1.0" xmlns="http://www.w3.org/2000/svg"
 width="512.000000pt" height="512.000000pt" viewBox="0 0 512.000000 512.000000"
 preserveAspectRatio="xMidYMid meet">

<g transform="translate(0.000000,512.000000) scale(0.100000,-0.100000)"
fill="#000000" stroke="none">
<path d="M2277 5101 c-70 -23 -158 -79 -188 -121 -22 -29 -25 -30 -109 -30
-96 0 -176 -18 -250 -55 -51 -26 -68 -54 -57 -95 4 -15 -9 -35 -47 -74 -43
-44 -58 -53 -78 -49 -40 8 -68 -14 -93 -70 -41 -94 -45 -141 -45 -516 0 -353
0 -358 -21 -377 -12 -10 -30 -37 -40 -59 -16 -35 -19 -68 -19 -266 0 -223 0
-226 26 -277 43 -86 128 -132 245 -132 l57 0 11 -67 c33 -192 121 -361 260
-498 46 -44 61 -66 61 -87 l0 -28 -78 0 c-80 0 -166 -19 -211 -48 -95 -59
-166 -146 -190 -234 l-12 -44 -92 -21 c-267 -64 -460 -242 -548 -508 -24 -70
-24 -73 -27 -652 -2 -412 0 -595 8 -625 15 -56 98 -138 156 -156 50 -15 357
-17 384 -2 43 23 40 116 -5 134 -9 3 -89 6 -177 6 l-160 0 -29 29 -29 29 0
549 c0 604 1 616 62 742 44 90 169 215 259 259 36 17 93 38 127 46 l62 14 0
-298 0 -297 -60 -22 c-94 -34 -178 -109 -225 -201 -37 -72 -45 -129 -45 -338
0 -229 5 -252 66 -298 32 -25 48 -29 113 -32 66 -3 80 -1 104 18 20 16 27 30
27 56 0 53 -28 74 -100 74 l-60 0 0 189 c0 143 4 199 15 232 47 132 179 202
311 164 47 -13 69 -27 109 -68 69 -71 75 -97 75 -326 l0 -191 -58 0 c-48 0
-62 -4 -80 -23 -31 -33 -29 -80 6 -107 23 -19 37 -21 104 -18 85 3 115 19 156
79 23 33 23 37 20 274 l-3 241 -32 64 c-52 106 -136 181 -242 216 l-51 16 0
299 0 299 63 0 62 0 99 -268 c55 -147 108 -279 119 -295 10 -15 36 -36 58 -47
32 -17 39 -26 39 -50 0 -37 57 -874 65 -952 l6 -58 -269 0 c-268 0 -269 0
-290 -23 -31 -33 -29 -80 4 -106 l27 -21 1246 2 c1191 3 1248 4 1283 22 44 21
93 68 116 111 15 27 17 89 17 630 l0 600 -23 75 c-75 241 -277 443 -500 501
-51 13 -52 13 -68 68 -31 110 -117 210 -224 259 -49 23 -70 26 -197 30 l-143
4 0 27 c0 19 16 43 61 86 139 137 227 306 260 498 l11 67 57 0 c117 0 202 46
245 132 26 51 26 54 26 277 0 198 -3 231 -19 266 -10 22 -28 49 -40 59 -21 19
-21 25 -21 342 0 348 -6 411 -54 538 -88 233 -295 422 -546 497 -70 21 -97 23
-425 26 -322 2 -355 1 -408 -16z m-214 -1039 c71 -148 192 -270 342 -342 143
-69 169 -72 558 -77 l347 -5 0 -337 c0 -301 -2 -345 -20 -419 -35 -148 -111
-275 -224 -379 -291 -266 -732 -262 -1021 9 -109 102 -180 223 -216 373 -17
73 -19 121 -19 571 l0 492 28 52 c30 59 81 105 138 125 22 8 41 14 44 15 3 0
22 -35 43 -78z m-405 -674 l-3 -253 -62 0 c-51 0 -66 4 -87 24 l-26 24 0 204
c0 203 0 204 25 228 21 22 33 25 90 25 l65 0 -2 -252z m1957 227 c25 -24 25
-25 25 -228 l0 -204 -26 -24 c-21 -20 -36 -24 -87 -24 l-62 0 -3 253 -2 252
65 0 c57 0 69 -3 90 -25z m-1345 -1411 c222 -78 448 -64 693 41 15 6 17 -1 17
-74 l0 -82 -206 -239 c-113 -132 -209 -240 -214 -240 -5 0 -101 108 -214 240
l-206 239 0 82 c0 73 2 80 18 74 9 -4 60 -23 112 -41z m-280 -77 c0 -19 -21
-38 -100 -90 -98 -65 -101 -67 -165 -67 -57 0 -65 2 -65 19 0 33 67 108 122
135 43 21 66 26 130 26 75 0 78 -1 78 -23z m1425 -1 c28 -13 60 -34 71 -47 24
-27 64 -90 64 -101 0 -5 -50 -8 -110 -8 l-110 0 -100 67 c-79 52 -100 71 -100
90 0 23 1 23 118 23 102 0 123 -3 167 -24z m-1177 -382 c100 -118 185 -220
188 -228 3 -9 -42 -37 -143 -87 -81 -41 -155 -77 -164 -81 -13 -5 -33 38 -113
251 -53 142 -96 261 -96 264 0 7 131 97 140 96 3 0 87 -97 188 -215z m912 166
c33 -22 60 -44 60 -47 0 -3 -43 -122 -96 -264 l-97 -257 -164 81 c-104 52
-162 86 -159 94 12 30 372 441 384 438 7 -3 39 -23 72 -45z m410 -434 l0 -344
-29 -7 c-36 -8 -109 -59 -145 -102 -68 -81 -89 -205 -53 -310 23 -67 94 -146
161 -180 73 -38 180 -43 259 -13 69 26 143 94 177 165 34 70 35 199 2 266 -36
73 -87 125 -157 160 l-65 32 0 329 0 329 23 -6 c128 -39 285 -174 345 -298 61
-126 62 -136 62 -740 l0 -549 -29 -29 -29 -29 -557 0 -556 0 6 58 c8 80 65
913 65 951 0 26 6 34 39 51 22 11 48 32 58 47 11 16 64 148 119 295 l99 268
103 0 102 0 0 -344z m-1268 -326 l24 -85 -26 -155 c-31 -184 -33 -179 -51 118
-11 175 -11 205 1 212 21 13 25 6 52 -90z m598 38 c0 -63 -18 -328 -27 -388
-6 -40 -9 -29 -33 110 l-26 155 23 80 c31 107 30 105 48 99 11 -4 15 -20 15
-56z m-226 -225 c3 -16 33 -192 66 -393 33 -201 63 -377 66 -393 l6 -27 -242
0 -242 0 6 28 c3 15 33 191 66 392 33 201 63 377 66 393 l6 27 98 0 98 0 6
-27z m896 -37 c0 -84 72 -126 127 -74 18 17 23 32 23 70 0 26 4 48 9 48 5 0
23 -13 39 -30 82 -82 60 -220 -44 -270 -89 -44 -186 -12 -231 74 -18 36 -20
114 -3 147 15 29 61 79 72 79 4 0 8 -20 8 -44z"/>
<path d="M2175 3440 c-20 -22 -31 -103 -21 -145 16 -62 83 -85 124 -42 31 33
32 157 2 187 -26 26 -81 26 -105 0z"/>
<path d="M2840 3440 c-16 -16 -20 -33 -20 -93 0 -64 3 -76 23 -95 44 -41 107
-19 123 43 10 42 -1 123 -21 145 -24 26 -79 26 -105 0z"/>
<path d="M2365 3025 c-14 -13 -25 -35 -25 -48 0 -38 55 -104 110 -132 102 -52
235 -23 300 67 36 50 38 81 5 113 -35 36 -68 32 -119 -15 -33 -30 -51 -40 -78
-40 -26 0 -44 9 -76 40 -48 47 -82 51 -117 15z"/>
</g>
</svg>
